<svg xmlns="http://www.w3.org/2000/svg" width="40" height="40" viewBox="0 0 40 40" fill="none">
<path d="M13.3327 30H30.3943L33.3327 32.3083V15H34.9993C35.4414 15 35.8653 15.1756 36.1779 15.4882C36.4904 15.8007 36.666 16.2246 36.666 16.6667V39.1667L29.241 33.3333H14.9993C14.5573 33.3333 14.1334 33.1577 13.8208 32.8452C13.5083 32.5326 13.3327 32.1087 13.3327 31.6667V30ZM9.09102 26.6667L1.66602 32.5V6.66667C1.66602 6.22464 1.84161 5.80072 2.15417 5.48816C2.46673 5.17559 2.89065 5 3.33268 5H28.3327C28.7747 5 29.1986 5.17559 29.5112 5.48816C29.8238 5.80072 29.9993 6.22464 29.9993 6.66667V26.6667H9.09102Z" fill="#6CB726"/>
</svg>